<svg xmlns="http://www.w3.org/2000/svg" viewBox="0 0 218.61 131.8"><defs><style>.cls-1{isolation:isolate;}.cls-2,.cls-5{fill:#fff;}.cls-2{opacity:0.9;}.cls-2,.cls-4{mix-blend-mode:lighten;}.cls-3,.cls-4{fill:none;stroke:#f2f2f2;stroke-linecap:round;stroke-miterlimit:10;stroke-width:18.5px;opacity:0.78;}.cls-3{mix-blend-mode:hard-light;}</style></defs><title>Asset 12</title><g class="cls-1"><g id="Layer_2" data-name="Layer 2"><g id="Layer_1-2" data-name="Layer 1"><path class="cls-2" d="M148.44,26.29a134.86,134.86,0,0,1,18.58,9A65.87,65.87,0,0,0,42.81,65.9c0,1.89.1,3.75.25,5.6.78,8,3.39,21.83,26.62,33.32,0,0-14.55-5.75-19.61-8.94A65.87,65.87,0,0,0,172.74,50.37C170,43.08,163.49,33.61,148.44,26.29ZM108.71,113.2A47.3,47.3,0,1,1,156,65.9,47.33,47.33,0,0,1,108.71,113.2Z"/><path class="cls-3" d="M9.25,65.78c0,14,44.29,56.53,99.29,56.53"/><path class="cls-4" d="M108.54,9.26C53.54,9.26,9.25,51,9.25,65.78"/><path class="cls-3" d="M209.36,65.78c0-14.74-44.82-56.52-99.82-56.52"/><path class="cls-3" d="M109.54,122.31c55,0,99.82-42.66,99.82-56.53"/><path class="cls-5" d="M123.49,58.22a7.11,7.11,0,0,0-12-.63,8,8,0,0,1,4.69-6.31,16.28,16.28,0,1,0,7.43,7.06A1.27,1.27,0,0,1,123.49,58.22Z"/></g></g></g></svg>